<?xml version="1.0" encoding="UTF-8" standalone="no"?>
<!-- Created with Inkscape (http://www.inkscape.org/) -->

<svg
   xmlns:dc="http://purl.org/dc/elements/1.1/"
   xmlns:cc="http://creativecommons.org/ns#"
   xmlns:rdf="http://www.w3.org/1999/02/22-rdf-syntax-ns#"
   xmlns:svg="http://www.w3.org/2000/svg"
   xmlns="http://www.w3.org/2000/svg"
   xmlns:sodipodi="http://sodipodi.sourceforge.net/DTD/sodipodi-0.dtd"
   xmlns:inkscape="http://www.inkscape.org/namespaces/inkscape"
   width="210mm"
   height="297mm"
   id="svg2"
   version="1.1"
   inkscape:version="0.48.2 r9819"
   sodipodi:docname="新規ドキュメント 1">
  <defs
     id="defs4" />
  <sodipodi:namedview
     id="base"
     pagecolor="#ffffff"
     bordercolor="#666666"
     borderopacity="1.0"
     inkscape:pageopacity="0.0"
     inkscape:pageshadow="2"
     inkscape:zoom="0.23714286"
     inkscape:cx="626.15541"
     inkscape:cy="-39.85125"
     inkscape:document-units="px"
     inkscape:current-layer="layer1"
     showgrid="true"
     showguides="true"
     inkscape:guide-bbox="true"
     inkscape:window-width="1015"
     inkscape:window-height="569"
     inkscape:window-x="205"
     inkscape:window-y="197"
     inkscape:window-maximized="0">
    <inkscape:grid
       type="xygrid"
       id="grid2985" />
  </sodipodi:namedview>
  <metadata
     id="metadata7">
    <rdf:RDF>
      <cc:Work
         rdf:about="">
        <dc:format>image/svg+xml</dc:format>
        <dc:type
           rdf:resource="http://purl.org/dc/dcmitype/StillImage" />
        <dc:title></dc:title>
      </cc:Work>
    </rdf:RDF>
  </metadata>
  <g
     inkscape:label="レイヤー 1"
     inkscape:groupmode="layer"
     id="layer1">
    <rect
       style="fill:#ffffff;fill-opacity:1;stroke:none"
       id="rect3780"
       width="440"
       height="440"
       x="0"
       y="612.36218"
       inkscape:export-filename="/Users/OrgaChem/Desktop/clg.png"
       inkscape:export-xdpi="90"
       inkscape:export-ydpi="90" />
    <g
       id="g3793"
       transform="matrix(5.2500002,0,0,5.2500002,-593.75,-387.53932)">
      <path
         transform="matrix(0,1,-1,0,337.36218,77.362183)"
         sodipodi:end="4.712389"
         sodipodi:start="0"
         d="m 145,207.36218 c 0,8.28427 -6.71573,15 -15,15 -8.28427,0 -15,-6.71573 -15,-15 0,-8.28427 6.71573,-15 15,-15 0,0 0,0 0,0 l 0,15 z"
         sodipodi:ry="15"
         sodipodi:rx="15"
         sodipodi:cy="207.36218"
         sodipodi:cx="130"
         id="path2987"
         style="fill:#2258c8;fill-opacity:1;stroke:none"
         sodipodi:type="arc" />
      <path
         sodipodi:type="arc"
         style="fill:#fec21e;fill-opacity:1;stroke:none"
         id="path2989"
         sodipodi:cx="130"
         sodipodi:cy="207.36218"
         sodipodi:rx="15"
         sodipodi:ry="15"
         d="m 145,207.36218 c 0,8.28427 -6.71573,15 -15,15 -8.28427,0 -15,-6.71573 -15,-15 0,-8.28427 6.71573,-15 15,-15 0,0 0,0 0,0 l 0,15 z"
         sodipodi:start="0"
         sodipodi:end="4.712389"
         transform="translate(-2.6171875e-6,49.999997)" />
      <path
         sodipodi:type="arc"
         style="fill:#ee2929;fill-opacity:1;stroke:none"
         id="path2991"
         sodipodi:cx="130"
         sodipodi:cy="207.36218"
         sodipodi:rx="15"
         sodipodi:ry="15"
         d="m 145,207.36218 c 0,8.28427 -6.71573,15 -15,15 -8.28427,0 -15,-6.71573 -15,-15 0,-8.28427 6.71573,-15 15,-15 0,0 0,0 0,0 l 0,15 z"
         sodipodi:start="0"
         sodipodi:end="4.712389"
         transform="matrix(0,1,1,0,-27.362183,77.362183)" />
      <path
         transform="matrix(-1,0,0,1,310,49.999997)"
         sodipodi:end="4.712389"
         sodipodi:start="0"
         d="m 145,207.36218 c 0,8.28427 -6.71573,15 -15,15 -8.28427,0 -15,-6.71573 -15,-15 0,-8.28427 6.71573,-15 15,-15 0,0 0,0 0,0 l 0,15 z"
         sodipodi:ry="15"
         sodipodi:rx="15"
         sodipodi:cy="207.36218"
         sodipodi:cx="130"
         id="path2993"
         style="fill:#2a8835;fill-opacity:1;stroke:none"
         sodipodi:type="arc" />
      <text
         sodipodi:linespacing="125%"
         id="text3774"
         y="239.4306"
         x="143.57042"
         style="font-size:16.21266747px;font-style:normal;font-variant:normal;font-weight:normal;font-stretch:normal;text-align:start;line-height:125%;letter-spacing:0px;word-spacing:0px;writing-mode:lr-tb;text-anchor:start;fill:#000000;fill-opacity:1;stroke:none;font-family:Century Gothic;-inkscape-font-specification:Century Gothic"
         xml:space="preserve"><tspan
           y="239.4306"
           x="143.57042"
           id="tspan3776"
           sodipodi:role="line">Geeks</tspan></text>
    </g>
  </g>
</svg>
